<mxfile host="Electron" modified="2024-08-13T00:45:53.049Z" agent="Mozilla/5.0 (Windows NT 10.0; Win64; x64) AppleWebKit/537.36 (KHTML, like Gecko) draw.io/21.7.5 Chrome/114.0.5735.289 Electron/25.8.1 Safari/537.36" etag="hgfipP6CvE1-euvDjnfB" version="21.7.5" type="device">
  <diagram name="Page-1" id="2cc2dc42-3aac-f2a9-1cec-7a8b7cbee084">
    <mxGraphModel dx="2049" dy="2106" grid="1" gridSize="10" guides="1" tooltips="1" connect="1" arrows="1" fold="1" page="1" pageScale="1" pageWidth="1600" pageHeight="900" background="none" math="0" shadow="0">
      <root>
        <mxCell id="0" />
        <mxCell id="1" parent="0" />
        <mxCell id="7026571954dc6520-1" value="" style="strokeWidth=1;shadow=0;dashed=0;align=center;html=1;shape=mxgraph.mockup.containers.browserWindow;rSize=0;strokeColor=#666666;mainText=,;recursiveResize=0;rounded=0;labelBackgroundColor=none;fontFamily=Verdana;fontSize=12;flipH=0;rotation=0;" parent="1" vertex="1">
          <mxGeometry width="1600" height="900" as="geometry" />
        </mxCell>
        <mxCell id="7026571954dc6520-2" value="Erreur" style="strokeWidth=1;shadow=0;dashed=0;align=center;html=1;shape=mxgraph.mockup.containers.anchor;fontSize=17;fontColor=#666666;align=left;" parent="7026571954dc6520-1" vertex="1">
          <mxGeometry x="60" y="12" width="110" height="26" as="geometry" />
        </mxCell>
        <mxCell id="7026571954dc6520-3" value="https://www.devflix.com/erreur" style="strokeWidth=1;shadow=0;dashed=0;align=center;html=1;shape=mxgraph.mockup.containers.anchor;rSize=0;fontSize=17;fontColor=#666666;align=left;" parent="7026571954dc6520-1" vertex="1">
          <mxGeometry x="130" y="60" width="250" height="26" as="geometry" />
        </mxCell>
        <mxCell id="7026571954dc6520-4" value="&lt;font style=&quot;font-size: 40px;&quot;&gt;Désolé, page introuvable.&lt;/font&gt;" style="text;html=1;points=[];align=left;verticalAlign=top;spacingTop=-4;fontSize=40;fontFamily=Verdana" parent="7026571954dc6520-1" vertex="1">
          <mxGeometry x="541.5" y="480" width="517.5" height="60" as="geometry" />
        </mxCell>
        <mxCell id="IAYpz8n3gdROOSDRj_zG-1" value="&lt;font style=&quot;font-size: 249px;&quot;&gt;404&lt;/font&gt;" style="text;strokeColor=none;fillColor=none;html=1;fontSize=24;fontStyle=1;verticalAlign=middle;align=center;" parent="7026571954dc6520-1" vertex="1">
          <mxGeometry x="594" y="260" width="412.5" height="200" as="geometry" />
        </mxCell>
        <mxCell id="IAYpz8n3gdROOSDRj_zG-2" value="&lt;span style=&quot;font-size: 15px;&quot;&gt;La page que vous semblez chercher est introuvable... &lt;br&gt;Assurez-vous que l&#39;URL est bel et bien correct.&lt;/span&gt;" style="text;html=1;strokeColor=none;fillColor=none;align=center;verticalAlign=middle;whiteSpace=wrap;rounded=0;" parent="7026571954dc6520-1" vertex="1">
          <mxGeometry x="619" y="560" width="361.5" height="40" as="geometry" />
        </mxCell>
        <mxCell id="IAYpz8n3gdROOSDRj_zG-4" value="Retour" style="strokeWidth=1;shadow=0;dashed=0;align=center;html=1;shape=mxgraph.mockup.buttons.button;strokeColor=#666666;fontColor=#ffffff;mainText=;buttonStyle=round;fontSize=17;fontStyle=1;fillColor=#008cff;whiteSpace=wrap;" parent="7026571954dc6520-1" vertex="1">
          <mxGeometry x="742.25" y="660" width="115" height="50" as="geometry" />
        </mxCell>
        <mxCell id="IAYpz8n3gdROOSDRj_zG-16" value="C8" style="strokeWidth=1;shadow=0;dashed=0;align=center;html=1;shape=mxgraph.mockup.text.callout;linkText=;textSize=17;textColor=#666666;callDir=NW;callStyle=line;fontSize=17;fontColor=#F0F0F0;align=left;verticalAlign=top;strokeColor=#60A917;labelBorderColor=none;" parent="7026571954dc6520-1" vertex="1">
          <mxGeometry x="640" y="630" width="102.25" height="50" as="geometry" />
        </mxCell>
        <mxCell id="zRQXj5FY19qIE2FTmXVh-2" value="" style="swimlane;shape=mxgraph.bootstrap.anchor;strokeColor=#999999;fillColor=#ffffff;fontColor=#666666;childLayout=stackLayout;horizontal=0;startSize=0;horizontalStack=1;resizeParent=1;resizeParentMax=0;resizeLast=0;collapsible=0;marginBottom=0;whiteSpace=wrap;html=1;" vertex="1" parent="7026571954dc6520-1">
          <mxGeometry x="910" y="140" width="600" height="30" as="geometry" />
        </mxCell>
        <mxCell id="zRQXj5FY19qIE2FTmXVh-3" value="Catalogue" style="text;strokeColor=inherit;align=center;verticalAlign=middle;spacingLeft=10;spacingRight=10;overflow=hidden;points=[[0,0.5],[1,0.5]];portConstraint=eastwest;rotatable=0;whiteSpace=wrap;html=1;fillColor=inherit;fontColor=inherit;fontSize=17;" vertex="1" parent="zRQXj5FY19qIE2FTmXVh-2">
          <mxGeometry width="120" height="30" as="geometry" />
        </mxCell>
        <mxCell id="zRQXj5FY19qIE2FTmXVh-4" value="Acteurs" style="text;strokeColor=inherit;align=center;verticalAlign=middle;spacingLeft=10;spacingRight=10;overflow=hidden;points=[[0,0.5],[1,0.5]];portConstraint=eastwest;rotatable=0;whiteSpace=wrap;html=1;fillColor=inherit;fontColor=inherit;fontSize=17;" vertex="1" parent="zRQXj5FY19qIE2FTmXVh-2">
          <mxGeometry x="120" width="120" height="30" as="geometry" />
        </mxCell>
        <mxCell id="zRQXj5FY19qIE2FTmXVh-5" value="Mon compte" style="text;strokeColor=inherit;align=center;verticalAlign=middle;spacingLeft=10;spacingRight=10;overflow=hidden;points=[[0,0.5],[1,0.5]];portConstraint=eastwest;rotatable=0;whiteSpace=wrap;html=1;fillColor=inherit;fontColor=inherit;fontSize=17;" vertex="1" parent="zRQXj5FY19qIE2FTmXVh-2">
          <mxGeometry x="240" width="120" height="30" as="geometry" />
        </mxCell>
        <mxCell id="zRQXj5FY19qIE2FTmXVh-6" value="Locations" style="text;strokeColor=#666666;align=center;verticalAlign=middle;spacingLeft=10;spacingRight=10;overflow=hidden;points=[[0,0.5],[1,0.5]];portConstraint=eastwest;rotatable=0;whiteSpace=wrap;html=1;fillColor=#f5f5f5;fontSize=17;fontColor=#333333;" vertex="1" parent="zRQXj5FY19qIE2FTmXVh-2">
          <mxGeometry x="360" width="120" height="30" as="geometry" />
        </mxCell>
        <mxCell id="zRQXj5FY19qIE2FTmXVh-8" value="Déconnexion&amp;nbsp;" style="text;strokeColor=#6F0000;align=center;verticalAlign=middle;spacingLeft=10;spacingRight=10;overflow=hidden;points=[[0,0.5],[1,0.5]];portConstraint=eastwest;rotatable=0;whiteSpace=wrap;html=1;fillColor=#a20025;fontColor=#ffffff;fontSize=17;" vertex="1" parent="zRQXj5FY19qIE2FTmXVh-2">
          <mxGeometry x="480" width="120" height="30" as="geometry" />
        </mxCell>
        <mxCell id="zRQXj5FY19qIE2FTmXVh-9" value="C4" style="strokeWidth=1;shadow=0;dashed=0;align=center;html=1;shape=mxgraph.mockup.text.callout;linkText=;textSize=17;textColor=#666666;callDir=NE;callStyle=line;fontSize=17;align=right;verticalAlign=top;strokeColor=#005700;fillColor=#008a00;fontColor=#ffffff;" vertex="1" parent="7026571954dc6520-1">
          <mxGeometry x="1090" y="-90" width="160" height="230" as="geometry" />
        </mxCell>
        <mxCell id="zRQXj5FY19qIE2FTmXVh-10" value="C1" style="strokeWidth=1;shadow=0;dashed=0;align=center;html=1;shape=mxgraph.mockup.text.callout;linkText=;textSize=17;textColor=#666666;callDir=NE;callStyle=line;fontSize=17;align=right;verticalAlign=top;strokeColor=#005700;fillColor=#008a00;fontColor=#ffffff;" vertex="1" parent="7026571954dc6520-1">
          <mxGeometry x="970" y="-90" width="160" height="230" as="geometry" />
        </mxCell>
        <mxCell id="zRQXj5FY19qIE2FTmXVh-1" value="" style="group;movable=1;resizable=1;rotatable=1;deletable=1;editable=1;locked=0;connectable=1;" vertex="1" connectable="0" parent="1">
          <mxGeometry x="780" y="-90" width="930" height="280" as="geometry" />
        </mxCell>
        <mxCell id="zRQXj5FY19qIE2FTmXVh-11" value="C17" style="strokeWidth=1;shadow=0;dashed=0;align=center;html=1;shape=mxgraph.mockup.text.callout;linkText=;textSize=17;textColor=#666666;callDir=NE;callStyle=line;fontSize=17;align=right;verticalAlign=top;strokeColor=#005700;fillColor=#008a00;fontColor=#ffffff;" vertex="1" parent="zRQXj5FY19qIE2FTmXVh-1">
          <mxGeometry x="430" width="160" height="230" as="geometry" />
        </mxCell>
        <mxCell id="zRQXj5FY19qIE2FTmXVh-12" value="C19" style="strokeWidth=1;shadow=0;dashed=0;align=center;html=1;shape=mxgraph.mockup.text.callout;linkText=;textSize=17;textColor=#666666;callDir=NE;callStyle=line;fontSize=17;align=right;verticalAlign=top;strokeColor=#005700;fillColor=#008a00;fontColor=#ffffff;" vertex="1" parent="zRQXj5FY19qIE2FTmXVh-1">
          <mxGeometry x="550" width="160" height="230" as="geometry" />
        </mxCell>
        <mxCell id="zRQXj5FY19qIE2FTmXVh-13" value="" style="verticalLabelPosition=bottom;shadow=0;dashed=0;align=center;html=1;verticalAlign=top;strokeWidth=1;shape=mxgraph.mockup.misc.shoppingCart;strokeColor=#999999;" vertex="1" parent="zRQXj5FY19qIE2FTmXVh-1">
          <mxGeometry x="760" y="220" width="50" height="50" as="geometry" />
        </mxCell>
        <mxCell id="zRQXj5FY19qIE2FTmXVh-15" value="C46" style="strokeWidth=1;shadow=0;dashed=0;align=center;html=1;shape=mxgraph.mockup.text.callout;linkText=;textSize=17;textColor=#666666;callDir=NE;callStyle=line;fontSize=17;align=right;verticalAlign=top;strokeColor=#005700;fillColor=#008a00;fontColor=#ffffff;" vertex="1" parent="zRQXj5FY19qIE2FTmXVh-1">
          <mxGeometry x="660" width="160" height="230" as="geometry" />
        </mxCell>
        <mxCell id="zRQXj5FY19qIE2FTmXVh-16" value="C9" style="strokeWidth=1;shadow=0;dashed=0;align=center;html=1;shape=mxgraph.mockup.text.callout;linkText=;textSize=17;textColor=#666666;callDir=NE;callStyle=line;fontSize=17;align=right;verticalAlign=top;strokeColor=#005700;fillColor=#008a00;fontColor=#ffffff;container=0;" vertex="1" parent="zRQXj5FY19qIE2FTmXVh-1">
          <mxGeometry x="780" width="160" height="230" as="geometry" />
        </mxCell>
        <mxCell id="zRQXj5FY19qIE2FTmXVh-17" value="Mentions Legales" style="fillColor=none;strokeColor=none;html=1;fontColor=#0057D8;align=center;verticalAlign=middle;fontStyle=0;fontSize=17;" vertex="1" parent="1">
          <mxGeometry x="105" y="825" width="250" height="75" as="geometry" />
        </mxCell>
        <mxCell id="zRQXj5FY19qIE2FTmXVh-18" value="FAQ" style="fillColor=none;strokeColor=none;html=1;fontColor=#0057D8;align=center;verticalAlign=middle;fontStyle=0;fontSize=17;fontFamily=Helvetica;" vertex="1" parent="1">
          <mxGeometry x="495" y="825" width="250" height="75" as="geometry" />
        </mxCell>
        <mxCell id="zRQXj5FY19qIE2FTmXVh-19" value="Contacts" style="fillColor=none;strokeColor=none;html=1;fontColor=#0057D8;align=center;verticalAlign=middle;fontStyle=0;fontSize=17;fontFamily=Helvetica;" vertex="1" parent="1">
          <mxGeometry x="875" y="825" width="250" height="75" as="geometry" />
        </mxCell>
        <mxCell id="zRQXj5FY19qIE2FTmXVh-20" value="Carrière&amp;nbsp;" style="fillColor=none;strokeColor=none;html=1;fontColor=#0057D8;align=center;verticalAlign=middle;fontStyle=0;fontSize=17;fontFamily=Helvetica;" vertex="1" parent="1">
          <mxGeometry x="1245" y="825" width="250" height="75" as="geometry" />
        </mxCell>
      </root>
    </mxGraphModel>
  </diagram>
</mxfile>
